<svg xmlns="http://www.w3.org/2000/svg" viewBox="0 0 17 16">
  <title>Elections</title>
  <path fill="#A7A9AC" d="M11.93 3.96a3.41 3.41 0 1 1-6.82 0 3.41 3.41 0 0 1 6.82 0Z"/>
  <path fill="#009FDF" d="M16.45 7.24a3.41 3.41 0 1 1-6.82 0 3.41 3.41 0 0 1 6.82 0Z"/>
  <path fill="#ED1C24" d="M7.42 7.24a3.41 3.41 0 1 1-6.82 0 3.41 3.41 0 0 1 6.82 0Z"/>
  <path fill="#4978BC" d="M9.15 12.55a3.41 3.41 0 1 1-6.83 0 3.41 3.41 0 0 1 6.83 0Z"/>
  <path fill="#DA202C" d="M14.73 12.55a3.41 3.41 0 1 1-6.82 0 3.41 3.41 0 0 1 6.82 0Z"/>
  <path fill="#001326" d="M11.3 9.13c1.12 0 2.11.53 2.73 1.36l-.24.06a3.42 3.42 0 0 1-3.48-1.27c.32-.1.65-.15 1-.15Z"/>
  <path fill="#430D1A" d="M5.73 9.13c.34 0 .68.05 1 .15l-.13.16A3.4 3.4 0 0 1 3 10.49a3.4 3.4 0 0 1 2.73-1.36Z"/>
  <path fill="#3E0F20" d="M8.4 14.32a3.41 3.41 0 0 1 .12-3.74 3.41 3.41 0 0 1 0 3.92l-.12-.18Z"/>
  <path fill="#006996" d="M9.62 7.17v-.14a3.41 3.41 0 0 1 2.13-2.96l.17-.07v.14a3.41 3.41 0 0 1-2.1 2.96l-.2.07v.05-.05Z"/>
  <path fill="#9B1218" d="M7.2 7.1A3.4 3.4 0 0 1 5.1 4a3.41 3.41 0 0 1 2.31 3.17l-.2-.07Z"/>
  <path fill="#FFF" d="m8.53 11.1-3.35 2.3 1.21-3.85-3.28-2.51H7.2l1.33-3.93 1.32 3.93h4.09l-3.27 2.51 1.2 3.85z"/>
</svg>