<svg width="" height="" viewBox="0 0 232 85" version="1.1" xmlns="http://www.w3.org/2000/svg" class="launcher-logo"><title>Launcher Logo</title><g id="Symbols" stroke="none" stroke-width="1" fill="none" fill-rule="evenodd"><g id="nav_desktop" transform="translate(-119.000000, -28.000000)"><g id="Group" transform="translate(119.000000, 27.000000)"><g id="FINAL-LOGO" transform="translate(0.000000, 1.000000)"><path d="M51.6086867,65.482592 L56.615716,70.5017638 L42.3615317,84.7494325 L28.1063047,70.5017638 L33.1242822,65.482592 L42.3615317,74.7329908 L51.6086867,65.482592 Z M92.7680935,28.2525399 L89.4648306,46.8039202 C89.3803721,47.3123558 89.3381429,47.7357914 89.3381429,48.159227 C89.3381429,50.3191656 90.6086688,51.2515583 92.5986553,51.2515583 C94.7158508,51.2515583 96.0708351,49.7690123 96.6213789,46.8039202 L99.9241204,28.2525399 L106.191249,28.2525399 L102.930736,46.6344417 C101.702961,53.4959755 97.6374867,56.8845031 91.4553384,56.8845031 C88.2792845,56.8845031 85.7809834,56.0798712 84.0026643,54.5545644 C82.2665744,52.9880613 81.3771542,50.8276012 81.3771542,48.159227 C81.3771542,47.4818344 81.3771542,46.930638 81.4616126,46.5922025 L82.64768,39.7306687 L84.6798957,28.2525399 L92.7680935,28.2525399 Z M146.883475,27.9136871 C150.059529,27.9136871 152.515601,28.8455583 154.336149,30.7093006 C156.11499,32.5302822 157.046118,35.1141779 157.046118,38.4177055 C157.046118,38.7144233 157.046118,39.0106196 157.003889,39.3073374 L149.339547,39.6885337 C149.466756,38.9261411 149.508985,38.1215092 149.508985,37.2741166 C149.508985,34.7752209 148.746774,33.7161104 147.010684,33.7161104 C145.189614,33.7161104 143.74965,35.368135 142.691313,38.7144233 C141.675205,41.9757117 141.124662,44.7713252 141.124662,47.0157423 C141.124662,49.8113558 142.140769,51.2089018 144.131277,51.2089018 C146.121264,51.2089018 147.687916,49.5568773 148.746774,46.210589 L155.310028,48.0748528 C153.108374,53.8772761 149.255089,56.7996074 143.792401,56.7996074 C140.150783,56.7996074 137.398585,55.6565399 135.577516,53.4116012 C133.756446,51.1666626 132.824796,48.2865706 132.824796,44.8135644 C132.824796,42.0179509 133.37534,39.3073374 134.434199,36.6389632 C135.534765,33.970589 137.186396,31.8528896 139.388572,30.2853436 C141.590747,28.718319 144.089048,27.9136871 146.883475,27.9136871 Z M14.2520989,28.1236319 L19.2622562,33.1349816 L10.0197933,42.3791227 L19.2617348,51.6227423 L14.2520989,56.6346135 L0,42.3791227 L14.2520989,28.1236319 Z M45.9779164,28.2524356 L42.0396512,50.4890613 L52.3300243,50.4890613 L51.3133951,56.5032025 L33.0203254,56.5032025 L38.0169276,28.2524356 L45.9779164,28.2524356 Z M117.792708,28.2524356 L122.027099,39.3921288 C122.747081,41.2981104 123.255396,42.9496135 123.509293,44.262681 C123.509293,43.8814847 123.678731,42.5684172 124.018129,40.2812393 L126.134803,28.2524356 L132.656349,28.2524356 L127.659225,56.5032025 L121.265409,56.5032025 L115.844951,42.9918528 C115.16772,41.2981104 114.743863,39.9428037 114.574947,38.9259325 C114.574947,40.2812393 114.447738,41.5943067 114.193841,42.9073742 C113.685526,45.5335092 112.923315,50.0651043 111.822227,56.5032025 L105.343432,56.5032025 L110.340034,28.2524356 L117.792708,28.2524356 Z M169.071642,28.2524356 L167.208343,38.841454 L173.68766,38.841454 L175.550438,28.2524356 L183.511427,28.2524356 L178.557053,56.5032025 L170.596065,56.5032025 L172.628802,45.1095521 L166.107777,45.1095521 L164.117791,56.5032025 L156.114051,56.5032025 L161.110653,28.2524356 L169.071642,28.2524356 Z M206.419159,28.2524356 L205.403051,34.4365767 L194.012111,34.4365767 L193.165442,39.3921288 L201.507015,39.3921288 L200.448678,44.9828344 L192.191563,44.9828344 L191.217684,50.3618221 L202.81977,50.3618221 L201.803662,56.5032025 L182.367276,56.5032025 L187.363878,28.2524356 L206.419159,28.2524356 Z M223.610567,28.2524356 C226.193327,28.2524356 228.226064,28.887589 229.708257,30.2006564 C231.19045,31.5137239 231.909911,33.2079877 231.909911,35.3256871 C231.909911,37.0621902 231.444347,38.756454 230.470468,40.4507178 C229.49659,42.1027423 227.972167,43.3308098 225.85445,44.0932025 L228.903295,56.5032025 L220.857848,56.5032025 L218.613965,45.3640307 L218.0629,45.3640307 C217.809003,45.4062699 217.597336,45.4062699 217.427898,45.4062699 L215.649578,45.4485092 L213.701821,56.5032025 L205.698082,56.5032025 L210.694684,28.2524356 L223.610567,28.2524356 Z M75.2802984,28.252592 L79.430231,56.5033589 L71.5114715,56.5033589 L70.7914894,50.7431748 L63.3810445,50.7431748 L60.7133052,56.5033589 L53.6417366,56.5033589 L67.1921007,28.252592 L75.2802984,28.252592 Z M69.267067,37.1895859 L65.4560108,45.8721012 L70.1987164,45.8721012 L69.267067,37.1895859 Z M220.984536,34.0976196 L217.554585,34.0976196 L216.454019,40.239 L219.714531,40.239 C221.026765,40.239 221.958936,39.8578037 222.593938,39.1798896 C223.186711,38.4602577 223.525587,37.612865 223.525587,36.5965153 C223.525587,35.0294908 222.551709,34.0976196 220.984536,34.0976196 Z" id="Combined-Shape" fill="#FFFFFF"></path><polygon id="Fill-2" fill="#F25D63" points="42.364347 -4.26325641e-14 28.1122481 14.2554908 33.1224054 19.266319 42.3638256 10.0221779 51.6057672 19.266319 56.6159245 14.2549693"></polygon></g></g></g></g></svg>